# xmcd
#
# Track frame offsets:
#	150
#	13355
#	26492
#	40817
#	63540
#	79092
#	96292
#	107767
#	120640
#	134127
#	145440
#	161462
#	171802
#	189820
#	204005
#	220012
#
# Disc length: 3114 seconds
#
# Revision: 1
# Processed by: cddbd v1.5.1PL2 Copyright (c) Steve Scherf et al.
# Submitted via: audiograbber 1.81.02
#
DISCID=dd0c2810
DTITLE=Helmut Jost und Ruthild Wilson - Kirchenmaus-Hits - Die schönsten Lieder
DTITLE=aus Christopher Kirchenmaus
DYEAR=2006
DGENRE=Pop
TTITLE0=Lachen macht die Herzen weit
TTITLE1=Freundschaft mit Gott
TTITLE2=Jesus liebt dich
TTITLE3=Gott hört, wenn ich ruf
TTITLE4=Die Welt ist bunt
TTITLE5=Ganz oder gar nicht
TTITLE6=Schenken macht Spaß
TTITLE7=Braune Augen
TTITLE8=Bernhard Iner
TTITLE9=Geburtstagsüberraschungsparty
TTITLE10=O du Weihnachten
TTITLE11=Die Engel singen
TTITLE12=Ehrlich währt am längsten
TTITLE13=Im Phantasialand
TTITLE14=Mit der Galaxie
TTITLE15=Wenn du Freunde brauchst
EXTD=www.gerth.de - ArtNo. 924337
EXTT0=
EXTT1=
EXTT2=
EXTT3=
EXTT4=
EXTT5=
EXTT6=
EXTT7=
EXTT8=
EXTT9=
EXTT10=
EXTT11=
EXTT12=
EXTT13=
EXTT14=
EXTT15=
PLAYORDER=
